# xmcd CD database file
#
# Track frame offsets:
#	150
#	11551
#	22951
#	39752
#	56554
#	66980
#	77406
#	92481
#	107555
#	121730
#	135905
#	152707
#	169507
#	184522
#	199539
#	212965
#	226392
#	241471
#	256546
#	272147
#	287746
#
# Disc length: 3864 seconds
#
# Revision: 2
# Processed by: cddbd v1.5.2PL0 Copyright (c) Steve Scherf et al.
# Submitted via: CDex 1.51
#
DISCID=050f1615
DTITLE=Oliver Nelson - Oliver Nelson
DYEAR=1900
DGENRE=Jazz
TTITLE0=The Drive (SPLIT)
TTITLE1=The Drive (STEREO)
TTITLE2=Emancipation Blues (SPLIT)
TTITLE3=Emancipation Blues (STEREO)
TTITLE4=Hoe-Down (SPLIT)
TTITLE5=Hoe-Down (STEREO)
TTITLE6=I Remember Bird (SPLIT)
TTITLE7=I Remember Bird (STEREO)
TTITLE8=Miss Fine (SPLIT)
TTITLE9=Miss Fine (STEREO)
TTITLE10=Six and Four (SPLIT)
TTITLE11=Six and Four (STEREO)
TTITLE12=Stolen Moments (SPLIT)
TTITLE13=Stolen Moments (STEREO)
TTITLE14=Straight Ahead (SPLIT)
TTITLE15=Straight Ahead (STEREO)
TTITLE16=Teenie's Blues (SPLIT)
TTITLE17=Teenie's Blues (STEREO)
TTITLE18=Yearnin' (SPLIT)
TTITLE19=Yearnin' (STEREO)
TTITLE20=Tuning notes
EXTD=
EXTT0=
EXTT1=
EXTT2=
EXTT3=
EXTT4=
EXTT5=
EXTT6=
EXTT7=
EXTT8=
EXTT9=
EXTT10=
EXTT11=
EXTT12=
EXTT13=
EXTT14=
EXTT15=
EXTT16=
EXTT17=
EXTT18=
EXTT19=
EXTT20=
PLAYORDER=
